<?xml version="1.0" encoding="UTF-8" standalone="no"?>
<!-- Created with Inkscape (http://www.inkscape.org/) -->

<svg
   xmlns:dc="http://purl.org/dc/elements/1.1/"
   xmlns:cc="http://creativecommons.org/ns#"
   xmlns:rdf="http://www.w3.org/1999/02/22-rdf-syntax-ns#"
   xmlns:svg="http://www.w3.org/2000/svg"
   xmlns="http://www.w3.org/2000/svg"
   xmlns:sodipodi="http://sodipodi.sourceforge.net/DTD/sodipodi-0.dtd"
   xmlns:inkscape="http://www.inkscape.org/namespaces/inkscape"
   width="32px"
   height="32px"
   viewBox="0 0 32 32"
   version="1.1"
   id="SVGRoot"
   inkscape:version="0.92.3 (2405546, 2018-03-11)"
   sodipodi:docname="icon.svg"
   inkscape:export-filename="C:\Users\kneas\Dropbox\Programming\Website\programming\javascript\icon_512.png"
   inkscape:export-xdpi="1536"
   inkscape:export-ydpi="1536">
  <sodipodi:namedview
     id="base"
     pagecolor="#ffffff"
     bordercolor="#666666"
     borderopacity="1.0"
     inkscape:pageopacity="0.0"
     inkscape:pageshadow="2"
     inkscape:zoom="45.254834"
     inkscape:cx="15.574435"
     inkscape:cy="18.35404"
     inkscape:document-units="px"
     inkscape:current-layer="layer1"
     showgrid="true"
     inkscape:window-width="1920"
     inkscape:window-height="1015"
     inkscape:window-x="0"
     inkscape:window-y="160"
     inkscape:window-maximized="1"
     inkscape:grid-bbox="true"
     inkscape:pagecheckerboard="true">
    <inkscape:grid
       type="xygrid"
       id="grid1374"
       empspacing="4" />
  </sodipodi:namedview>
  <defs
     id="defs815" />
  <metadata
     id="metadata818">
    <rdf:RDF>
      <cc:Work
         rdf:about="">
        <dc:format>image/svg+xml</dc:format>
        <dc:type
           rdf:resource="http://purl.org/dc/dcmitype/StillImage" />
        <dc:title></dc:title>
      </cc:Work>
    </rdf:RDF>
  </metadata>
  <g
     id="layer1"
     inkscape:groupmode="layer"
     inkscape:label="Layer 1">
    <path
       style="fill:#ffffff;fill-opacity:1;stroke:#000000;stroke-width:1;stroke-linecap:round;stroke-linejoin:round;stroke-miterlimit:4;stroke-dasharray:none;stroke-opacity:1"
       d="M 18 5 A 4 4 0 0 0 14.576172 6.9414062 A 4 4 0 0 0 12 6 A 4 4 0 0 0 8 10 A 4 4 0 0 0 8.7246094 12.287109 A 3 3 0 0 0 7 15 A 3 3 0 0 0 10 18 A 3 3 0 0 0 12.023438 17.210938 A 1 1 0 0 0 13 18 A 1 1 0 0 0 13.601562 17.796875 A 3 3 0 0 0 16 19 A 3 3 0 0 0 18.710938 17.277344 A 4 4 0 0 0 21 18 A 4 4 0 0 0 24.630859 15.666016 A 3 3 0 0 0 26 16 A 3 3 0 0 0 29 13 A 3 3 0 0 0 26 10 A 3 3 0 0 0 25.822266 10.005859 A 3 3 0 0 0 26 9 A 3 3 0 0 0 23 6 A 3 3 0 0 0 21.199219 6.6054688 A 4 4 0 0 0 18 5 z "
       id="path842" />
    <circle
       style="fill:#ffffff;fill-opacity:1;stroke:#000000;stroke-width:1;stroke-linecap:round;stroke-linejoin:round;stroke-miterlimit:4;stroke-dasharray:none;stroke-opacity:1"
       id="path844"
       cx="11"
       cy="21"
       r="1" />
    <circle
       style="fill:#ffffff;fill-opacity:1;stroke:#000000;stroke-width:1;stroke-linecap:round;stroke-linejoin:round;stroke-miterlimit:4;stroke-dasharray:none;stroke-opacity:1"
       id="path846"
       cx="8"
       cy="24"
       r="1" />
  </g>
</svg>
